<?xml version="1.0" encoding="UTF-8" standalone="no"?>
<svg xmlns="http://www.w3.org/2000/svg" viewBox="0 0 300 420" width="300" height="420">
  <!-- Book cover -->
  <rect x="20" y="20" width="260" height="380" rx="5" ry="5" fill="#27ae60" />
  <rect x="30" y="30" width="240" height="360" rx="3" ry="3" fill="#2ecc71" stroke="#27ae60" stroke-width="2" />
  
  <!-- Book spine line -->
  <line x1="40" y1="30" x2="40" y2="390" stroke="#27ae60" stroke-width="1.5" />
  
  <!-- Book title -->
  <rect x="70" y="80" width="180" height="60" rx="5" ry="5" fill="#f5f8fa" />
  <text x="160" y="115" font-family="Arial, sans-serif" font-size="20" font-weight="bold" text-anchor="middle" fill="#2c3e50">Forest Tales</text>
  
  <!-- Book author -->
  <text x="160" y="180" font-family="Arial, sans-serif" font-size="16" text-anchor="middle" fill="#f5f8fa">by Nature Guide</text>
  
  <!-- Tree decoration -->
  <path d="M160,210 L160,310 L170,310 L170,280 L180,280 L180,260 L190,260 L160,220 L130,260 L140,260 L140,280 L150,280 L150,310 L160,310 Z" fill="#f5f8fa" />
  
  <!-- Ground -->
  <rect x="70" y="310" width="180" height="40" rx="5" ry="5" fill="#8e44ad" opacity="0.6" />
  
  <!-- Grass -->
  <path d="M80,310 Q85,290 90,310 Q95,280 100,310 Q105,290 110,310 Q115,280 120,310 Q125,290 130,310 Q135,280 140,310 Q145,290 150,310 Q155,280 160,310 Q165,290 170,310 Q175,280 180,310 Q185,290 190,310 Q195,280 200,310 Q205,290 210,310 Q215,280 220,310 Q225,290 230,310 Q235,280 240,310" stroke="#f5f8fa" stroke-width="2" fill="none" />
</svg>